<svg width="100" height="92" viewBox="0 0 100 92" fill="none" xmlns="http://www.w3.org/2000/svg">
<path d="M4.53056 10.29C6.32697 10.1266 8.27748 8.96492 9.88857 8.25761C12.8997 6.93563 16.0241 5.39265 18.6092 3.32455C19.1504 2.89162 21.4307 0.798397 19.3482 2.12361C14.8244 5.0024 9.95595 7.0272 4.75227 8.27609C3.66317 8.53747 3.21753 9.12933 2.35041 9.62483C1.03477 10.3766 1.77488 11.1925 2.60907 12.0267C5.37697 14.7946 8.48818 18.1404 11.847 20.193C13.8993 21.4472 7.72038 17.6793 5.89778 16.1099C5.18554 15.4966 3.44056 14.1148 3.21878 13.1168C3.08179 12.5003 3.25507 11.9066 3.03402 11.2877C2.96913 11.106 2.44767 10.1359 2.68297 10.0313C3.74626 9.55873 6.7563 10.7683 7.85623 10.9551C11.5626 11.5845 15.2554 12.1044 18.9787 12.6179C23.1393 13.1918 27.3583 13.7036 31.5423 12.9505C36.7248 12.0176 39.0145 7.4994 43.1082 4.71024C48.2569 1.20235 57.3768 2.10595 62.5264 5.15366C67.0439 7.82727 67.7477 12.5512 67.3486 17.4401C66.9765 21.9982 63.6381 26.0591 59.4779 27.8421C58.0705 28.4452 54.3475 28.0631 56.4848 25.8467C58.8689 23.3742 62.982 23.0314 66.1846 23.8143C68.6403 24.4146 71.9302 27.3545 72.3001 29.9853C72.9641 34.7065 72.2732 39.7488 70.7112 44.2117C69.6255 47.3139 68.802 51.0252 69.0669 54.3365C69.3995 58.4949 79.5085 58.5905 82.351 58.7707C85.1237 58.9464 87.9579 59.0947 90.3326 57.4404C92.5582 55.89 94.4917 53.5112 95.9862 51.2695C97.6385 48.7911 98.5172 45.325 96.6514 42.7336C95.6325 41.3186 93.7677 40.3035 92.0139 41.0708C90.5078 41.7297 90.3018 44.4121 90.3326 45.8006C90.3838 48.1054 91.7335 49.9876 92.1433 52.2118C92.9752 56.7281 92.9931 61.3288 92.9931 65.9024C92.9931 69.0044 93.3257 72.0546 93.3257 75.1403C93.3257 78.0887 93.6583 81.0872 93.6583 83.9533C93.6583 85.3142 92.8928 89.7231 94.3234 90.4384" stroke="#E7B8FF" stroke-width="3" stroke-linecap="round"/>
</svg>
