<svg width="127" height="127" viewBox="0 0 127 127" fill="none" xmlns="http://www.w3.org/2000/svg">
<path d="M15 14.9207C18.4714 14.9207 27.3871 14.9207 30.9078 13.0749C32.1862 11.2092 34.6792 8.24359 33.95 5.69164C33.4554 3.96041 30.5945 3.2703 29.3697 4.46109C27.5826 6.19854 26.5288 9.10153 27.3871 11.5538C29.5526 17.7411 39.85 15.0743 43.897 12.6989C46.6079 11.1077 48.7809 8.50208 49.0413 5.24728C49.208 3.16393 49.0505 2.22564 46.8366 2.30764C45.2021 2.36817 44.4439 6.1314 44.4439 7.4691C44.4439 9.46764 45.6414 11.3618 47.2126 12.5964C50.1854 14.9322 55.9468 14.5358 59.2104 12.904C62.1134 11.4525 64.7307 8.54623 65.517 5.4011C66.0851 3.12861 65.7723 2 63.1413 2C61.4133 2 59.2418 3.78456 58.9199 5.55491C58.3786 8.53208 61.2306 11.4163 63.7566 12.4597C65.5702 13.2088 67.755 14.7791 69.7384 14.9207C73.268 15.1729 75.9585 15.2097 79.2068 13.3826C81.9459 11.8418 85.0677 10.0889 85.9065 6.85383C86.2213 5.63949 83.876 3.23055 82.7446 3.23055C80.9539 3.23055 80.0254 3.21513 79.3606 5.07637C78.6976 6.9328 79.1556 9.28202 80.5057 10.6822C83.5666 13.8564 86.9493 13.9978 91.2047 13.9978C94.616 13.9978 96.5344 13.4602 99.5109 11.8444C102.226 10.3707 102.789 6.76383 100.878 4.30728C100.142 3.36128 98.7343 3.47878 97.665 3.53818C95.9396 3.63404 95.8192 6.35951 95.8192 7.53746C95.8192 12.0674 99.553 12.1774 102.963 13.3142C105.485 14.1549 109.342 14.6801 112 14.6801" stroke="#E7B8FF" stroke-width="3" stroke-linecap="round"/>
<path d="M14.9207 112.001C14.921 108.53 14.9217 99.6139 13.0762 96.093C11.2106 94.8146 8.24517 92.3213 5.69316 93.0503C3.9619 93.5448 3.27156 96.4056 4.46225 97.6305C6.19955 99.4178 9.10246 100.472 11.5548 99.6137C17.7422 97.4486 15.0763 87.1511 12.7012 83.1039C11.1102 80.3928 8.50479 78.2196 5.25001 77.9589C3.16668 77.7921 2.22838 77.9496 2.3102 80.1634C2.3706 81.7979 6.13376 82.5565 7.47147 82.5566C9.47001 82.5567 11.3643 81.3594 12.599 79.7883C14.935 76.8156 14.5391 71.0542 12.9076 67.7904C11.4563 64.8873 8.55022 62.2698 5.40516 61.4833C3.13271 60.915 2.00408 61.2277 2.00387 63.8587C2.00373 65.5867 3.78812 67.7584 5.55844 68.0804C8.53556 68.6219 11.42 65.7702 12.4636 63.2442C13.2128 61.4307 14.7833 59.246 14.9251 57.2626C15.1775 53.7331 15.2146 51.0425 13.3877 47.7941C11.8472 45.0549 10.0945 41.9329 6.85952 41.0939C5.64521 40.779 3.23608 43.1241 3.23599 44.2555C3.23585 46.0461 3.22036 46.9747 5.08154 47.6396C6.93792 48.3028 9.28718 47.845 10.6875 46.495C13.862 43.4343 14.0036 40.0516 14.004 35.7963C14.0042 32.385 13.4667 30.4665 11.8512 27.4899C10.3777 24.7751 6.77089 24.2116 4.31418 26.122C3.36812 26.8578 3.48551 28.2658 3.54483 29.3351C3.64055 31.0605 6.36601 31.1811 7.54396 31.1812C12.0739 31.1816 12.1842 27.4479 13.3213 24.0377C14.1622 21.5156 14.6877 17.6589 14.6879 15.001" stroke="#E7B8FF" stroke-width="3" stroke-linecap="round"/>
<path d="M112.441 16C112.441 19.4714 112.441 28.3871 114.287 31.9078C116.153 33.1862 119.118 35.6792 121.67 34.95C123.402 34.4554 124.092 31.5945 122.901 30.3697C121.163 28.5826 118.26 27.5288 115.808 28.3871C109.621 30.5526 112.288 40.85 114.663 44.897C116.254 47.6079 118.86 49.7809 122.115 50.0413C124.198 50.208 125.136 50.0505 125.054 47.8366C124.994 46.2021 121.231 45.4439 119.893 45.4439C117.894 45.4439 116 46.6414 114.766 48.2126C112.43 51.1854 112.826 56.9468 114.458 60.2104C115.909 63.1134 118.816 65.7307 121.961 66.517C124.233 67.0851 125.362 66.7723 125.362 64.1413C125.362 62.4133 123.577 60.2418 121.807 59.9199C118.83 59.3786 115.946 62.2306 114.902 64.7566C114.153 66.5702 112.583 68.755 112.441 70.7384C112.189 74.268 112.152 76.9585 113.979 80.2068C115.52 82.9459 117.273 86.0677 120.508 86.9065C121.722 87.2213 124.131 84.876 124.131 83.7446C124.131 81.9539 124.147 81.0254 122.286 80.3606C120.429 79.6976 118.08 80.1556 116.68 81.5057C113.505 84.5666 113.364 87.9493 113.364 92.2047C113.364 95.616 113.902 97.5344 115.518 100.511C116.991 103.226 120.598 103.789 123.055 101.878C124.001 101.142 123.883 99.7343 123.824 98.665C123.728 96.9396 121.002 96.8192 119.824 96.8192C115.295 96.8192 115.184 100.553 114.048 103.963C113.207 106.485 112.682 110.342 112.682 113" stroke="#E7B8FF" stroke-width="3" stroke-linecap="round"/>
<path d="M112 112.441C108.529 112.441 99.6129 112.441 96.0922 114.287C94.8138 116.153 92.3208 119.118 93.05 121.67C93.5446 123.402 96.4055 124.092 97.6303 122.901C99.4174 121.163 100.471 118.26 99.6129 115.808C97.4474 109.621 87.15 112.288 83.103 114.663C80.3921 116.254 78.2191 118.86 77.9587 122.115C77.792 124.198 77.9495 125.136 80.1634 125.054C81.7979 124.994 82.5561 121.231 82.5561 119.893C82.5561 117.894 81.3586 116 79.7874 114.766C76.8146 112.43 71.0532 112.826 67.7896 114.458C64.8866 115.909 62.2693 118.816 61.483 121.961C60.9149 124.233 61.2277 125.362 63.8587 125.362C65.5867 125.362 67.7582 123.577 68.0801 121.807C68.6214 118.83 65.7694 115.946 63.2434 114.902C61.4298 114.153 59.245 112.583 57.2616 112.441C53.732 112.189 51.0415 112.152 47.7932 113.979C45.0541 115.52 41.9323 117.273 41.0935 120.508C40.7787 121.722 43.124 124.131 44.2554 124.131C46.0461 124.131 46.9746 124.147 47.6394 122.286C48.3024 120.429 47.8444 118.08 46.4943 116.68C43.4334 113.506 40.0507 113.364 35.7953 113.364C32.384 113.364 30.4656 113.902 27.4891 115.518C24.7745 116.991 24.2112 120.598 26.1219 123.055C26.8576 124.001 28.2657 123.883 29.335 123.824C31.0604 123.728 31.1808 121.002 31.1808 119.824C31.1808 115.295 27.447 115.185 24.0368 114.048C21.5147 113.207 17.6579 112.682 15 112.682" stroke="#E7B8FF" stroke-width="3" stroke-linecap="round"/>
<path d="M112.057 15.2038C112.687 15.2038 113.317 15.2038 113.947 15.2038C114.6 15.2038 114.887 14.9501 115.324 14.4496C115.777 13.9292 116.35 13.3937 116.68 12.7796C116.929 12.3176 116.954 11.677 116.994 11.1683C117.042 10.554 117.251 9.64547 117.043 9.03291C116.904 8.62475 116.358 8.1666 116.024 7.90647C115.266 7.31652 114.417 6.91083 113.663 7.79873C112.956 8.6316 112.783 9.48282 112.679 10.5267C112.61 11.22 112.498 11.9486 112.498 12.6424C112.498 13.0842 112.379 13.7017 112.253 14.1264C112.141 14.5044 112.312 15.3898 112.057 15.6446" stroke="#E7B8FF" stroke-width="3" stroke-linecap="round"/>
<path d="M14.2918 15.8209C14.2918 14.3843 14.2918 12.9477 14.2918 11.5111C14.2918 10.4287 13.5309 9.5557 12.705 8.94476C12.1845 8.55971 11.6503 8.30768 11.0203 8.15136C10.443 8.00812 9.39269 7.75202 8.83106 8.11708C7.93919 8.69679 7.59198 10.5781 7.59198 11.5503C7.59198 13.6274 10.3575 15.2039 12.2447 15.2039C13.0366 15.2039 13.7655 15.0275 14.5563 15.0275" stroke="#E7B8FF" stroke-width="3" stroke-linecap="round"/>
<path d="M15.1734 111.206C15.1734 112.949 15.1734 114.693 15.1734 116.437C15.1734 116.983 15.1993 117.439 14.86 117.901C14.5027 118.387 14.0662 118.785 13.567 119.12C12.7294 119.683 11.1868 119.776 10.2759 119.395C8.83085 118.79 8.38539 117.439 8.38539 115.986C8.38539 115.143 8.26878 114.55 9.13962 114.159C10.0769 113.739 11.1116 113.338 12.1565 113.322C12.8693 113.31 13.5631 113.315 14.2478 113.106C14.6037 112.998 14.9791 112.969 15.3497 112.969" stroke="#E7B8FF" stroke-width="3" stroke-linecap="round"/>
<path d="M112.467 111.125C112.467 112.992 112.335 114.907 112.473 116.769C112.52 117.402 113.18 118.109 113.623 118.522C114.474 119.315 115.515 119.456 116.631 119.539C117.757 119.622 119.797 119.794 120.405 118.577C120.839 117.709 120.559 116.408 120.077 115.618C119.231 114.234 117.455 113.48 115.925 113.201C115.546 113.133 115.16 112.988 114.768 112.988C114.377 112.988 113.783 113.099 113.453 112.879" stroke="#E7B8FF" stroke-width="3" stroke-linecap="round"/>
</svg>
