<svg width="88" height="56" viewBox="0 0 88 56" fill="none" xmlns="http://www.w3.org/2000/svg">
<path d="M10.8666 2.37282C9.05956 4.08947 6.95617 5.42812 4.91732 6.84398C4.73472 6.97079 1.81201 8.97026 2.36765 9.2828C2.96044 9.61625 3.89053 9.54539 4.54781 9.87403C5.43331 10.3168 6.18371 10.9926 6.87577 11.6847C7.27164 12.0805 9.88771 14.9222 8.87117 14.0126C7.30642 12.6126 5.74667 11.0766 4.14134 9.76318C3.56956 9.29536 2.89982 9.162 2.4046 8.52529C1.73138 7.65971 5.22768 8.02644 5.5455 8.02644C11.0593 8.02644 16.5871 7.91394 22.0999 8.02644C39.5554 8.38268 26.5159 35.8856 33.8136 44.5348C37.2242 48.577 45.688 47.9543 49.9616 45.8651C53.1783 44.2924 54.2888 41.6864 54.1002 38.29C54.0411 37.2272 50.6334 37.4609 50.1094 37.9574C48.5286 39.455 48.7416 41.2553 48.7791 43.2784C48.9178 50.767 60.2027 53.9206 66.1464 53.9206C71.3762 53.9206 76.7698 54.3109 81.9618 53.6619C83.3385 53.4898 85.0232 52.9229 86.3591 52.9229" stroke="#E7B8FF" stroke-opacity="0.65" stroke-width="3" stroke-linecap="round"/>
</svg>
